<svg width="285" height="70" viewBox="0 0 285 70" fill="none" xmlns="http://www.w3.org/2000/svg">
<g clip-path="url(#clip0_2422_618)">
<path d="M0 0V69.4398H58.6096V0H0ZM51.8319 62.7045H6.76083V6.71859H51.8319V62.7045Z" fill="white"/>
<path d="M45.071 13.4373H13.5216V55.986H45.071V13.4373Z" fill="#76BC21"/>
<path d="M76.0828 25.9894C77.2242 27.0561 78.5674 27.8869 80.0345 28.4337C81.6242 29.0251 83.3103 29.3195 85.0077 29.3019C86.6833 29.3202 88.3474 29.0257 89.9136 28.4337C91.3671 27.884 92.699 27.0583 93.8351 26.0027C94.948 24.9589 95.8343 23.6998 96.4392 22.3029C97.0756 20.8332 97.396 19.2477 97.3801 17.6479C97.4001 16.0499 97.0794 14.4658 96.4392 12.9997C95.8241 11.6163 94.9389 10.3678 93.8351 9.32652C92.7032 8.2624 91.3704 7.43164 89.9136 6.88218C86.7302 5.7201 83.2347 5.7201 80.0513 6.88218C78.5854 7.43128 77.2426 8.26186 76.0996 9.32652C74.9896 10.3636 74.1055 11.6161 73.5022 13.0064C72.27 15.975 72.27 19.3075 73.5022 22.2761C74.0991 23.6755 74.9773 24.9391 76.0828 25.9894ZM78.435 14.7194C78.7766 13.8649 79.2887 13.088 79.9404 12.4354C80.583 11.7966 81.3487 11.2935 82.1918 10.9561C83.0833 10.6045 84.0351 10.4287 84.9942 10.4385C85.9587 10.4296 86.9159 10.6053 87.8135 10.9561C88.6595 11.2878 89.4264 11.7917 90.0648 12.4354C90.7081 13.0914 91.2141 13.8678 91.5534 14.7194C92.2661 16.6087 92.2661 18.6905 91.5534 20.5798C91.2176 21.4315 90.7103 22.2061 90.0625 22.8561C89.4148 23.5061 88.6403 24.0178 87.7866 24.3598C86.8948 24.7103 85.943 24.8849 84.9841 24.8741C84.021 24.884 83.0649 24.7094 82.1682 24.3598C81.3212 24.0286 80.554 23.5233 79.9169 22.8772C79.2676 22.2188 78.76 21.436 78.4249 20.5765C77.7125 18.6929 77.7125 16.6163 78.4249 14.7328L78.435 14.7194Z" fill="white"/>
<path d="M121.198 6.38464H115.66L109.712 15.4941H105.942V6.38464H100.727V28.9179H105.942V19.8385H109.558L115.465 28.9179H121.423L113.788 17.2673L121.198 6.38464Z" fill="white"/>
<path d="M142.821 9.31321C141.689 8.2491 140.356 7.41833 138.899 6.86888C135.716 5.70679 132.221 5.70679 129.037 6.86888C127.571 7.41797 126.228 8.24855 125.085 9.31321C123.97 10.3533 123.083 11.6105 122.478 13.0064C121.246 15.975 121.246 19.3076 122.478 22.2762C123.079 23.6729 123.961 24.933 125.069 25.9794C126.21 27.0461 127.553 27.877 129.02 28.4238C130.61 29.0151 132.296 29.3095 133.993 29.292C135.669 29.3102 137.333 29.0157 138.899 28.4238C140.353 27.874 141.685 27.0483 142.821 25.9928C143.934 24.949 144.82 23.6898 145.425 22.2929C146.061 20.8233 146.382 19.2378 146.366 17.638C146.386 16.0399 146.065 14.4558 145.425 12.9897C144.81 11.6051 143.925 10.3555 142.821 9.31321ZM140.519 20.5799C140.184 21.4306 139.679 22.2046 139.033 22.8546C138.387 23.5045 137.614 24.0167 136.762 24.3599C135.871 24.7103 134.919 24.885 133.96 24.8741C132.997 24.8841 132.041 24.7095 131.144 24.3599C130.297 24.0286 129.53 23.5234 128.893 22.8773C128.243 22.2189 127.736 21.4361 127.401 20.5765C126.688 18.6929 126.688 16.6164 127.401 14.7328C127.742 13.8784 128.254 13.1014 128.906 12.4488C129.549 11.81 130.314 11.3069 131.157 10.9695C132.049 10.6179 133.001 10.4421 133.96 10.4519C134.924 10.443 135.881 10.6187 136.779 10.9695C137.625 11.3012 138.392 11.8051 139.03 12.4488C139.674 13.1049 140.18 13.8812 140.519 14.7328C141.232 16.6221 141.232 18.7039 140.519 20.5932V20.5799Z" fill="white"/>
<path d="M155.012 19.6782H165.314V28.9179H170.56V6.38464H165.314V15.2671H155.012V6.38464H149.767V28.9179H155.012V19.6782Z" fill="white"/>
<path d="M196.377 28.9179V6.38464H191.128V15.2671H180.829V6.38464H175.583V28.9179H180.829V19.6782H191.128V28.9179H196.377Z" fill="white"/>
<path d="M229.058 6.38464H223.843V28.9179H229.058V6.38464Z" fill="white"/>
<path d="M218.729 15.6077C217.237 14.3966 215.12 13.79 212.378 13.7878H206.612V6.38464H201.4V28.9179H211.635C214.548 28.9179 216.83 28.2501 218.484 26.9144C220.137 25.5787 220.964 23.6252 220.964 21.054C220.964 18.6341 220.219 16.8187 218.729 15.6077ZM214.525 24.056C213.746 24.7238 212.687 25.0577 211.35 25.0577H206.612V17.6479H211.343C212.704 17.6479 213.766 17.9218 214.535 18.4727C215.305 19.0237 215.681 19.9153 215.681 21.1441C215.681 22.373 215.295 23.3915 214.525 24.056Z" fill="white"/>
<path d="M249.825 28.9179H255.003V6.38464H250.08L239.264 21.0607V6.38464H234.048V28.9179H239.005L249.825 14.272V28.9179Z" fill="white"/>
<path d="M239.768 3.65651C240.769 4.51581 242.35 4.94435 244.512 4.94212C246.674 4.9399 248.25 4.51136 249.24 3.65651C250.255 2.79721 250.773 1.58395 250.796 0.0167236H247.2C247.214 0.342964 247.157 0.668312 247.035 0.971154C246.912 1.274 246.725 1.54739 246.488 1.77316C245.925 2.20543 245.222 2.41699 244.512 2.36756C243.616 2.36756 242.952 2.16942 242.52 1.77316C242.287 1.54482 242.104 1.27066 241.984 0.968219C241.863 0.665774 241.808 0.341705 241.821 0.0167236H238.229C238.249 1.58172 238.762 2.79498 239.768 3.65651Z" fill="white"/>
<path d="M94.571 39.9108H89.0333L83.0857 49.0202H79.3155V39.9108H74.1003V62.444H79.3155V53.3646H82.9311L88.8384 62.444H94.7961L87.1617 50.7934L94.571 39.9108Z" fill="white"/>
<path d="M116.194 42.8393C115.063 41.7728 113.73 40.9397 112.273 40.3883C109.089 39.2262 105.594 39.2262 102.411 40.3883C100.945 40.9374 99.6018 41.768 98.4588 42.8326C97.3415 43.8747 96.4536 45.1357 95.8513 46.5358C94.6191 49.5045 94.6191 52.837 95.8513 55.8056C96.4516 57.2017 97.3333 58.4609 98.442 59.5055C99.5824 60.5743 100.926 61.4064 102.394 61.9532C103.983 62.5446 105.669 62.8389 107.367 62.8214C109.042 62.8397 110.707 62.5452 112.273 61.9532C113.726 61.4034 115.058 60.5777 116.194 59.5222C117.308 58.4779 118.195 57.2189 118.802 55.8223C119.437 54.3522 119.757 52.7671 119.743 51.1674C119.766 49.6074 119.463 48.0595 118.852 46.6223C118.241 45.1851 117.336 43.89 116.194 42.8193V42.8393ZM113.892 54.1059C113.553 54.9615 113.041 55.7388 112.387 56.39C111.746 57.0312 110.98 57.5356 110.136 57.8726C109.244 58.223 108.292 58.3977 107.333 58.3869C106.37 58.3968 105.414 58.2222 104.517 57.8726C103.67 57.5413 102.903 57.0361 102.266 56.39C101.618 55.7309 101.112 54.9483 100.777 54.0893C100.061 52.2065 100.061 50.1284 100.777 48.2456C101.112 47.397 101.618 46.6252 102.263 45.9775C102.909 45.3299 103.68 44.8199 104.531 44.4789C105.423 44.1302 106.375 43.9557 107.333 43.9646C108.297 43.9563 109.254 44.1309 110.153 44.4789C110.998 44.813 111.765 45.3178 112.404 45.9615C113.047 46.6176 113.553 47.3939 113.892 48.2456C114.605 50.1348 114.605 52.2167 113.892 54.1059Z" fill="white"/>
<path d="M138.688 48.7932H128.385V39.9108H123.14V62.444H128.385V53.2043H138.688V62.444H143.937V39.9108H138.688V48.7932Z" fill="white"/>
<path d="M146.625 44.1616H153.849V62.444H159.031V44.1616H166.286V39.9108H146.625V44.1616Z" fill="white"/>
<path d="M174.155 54.5868V39.9108H168.94V62.444H173.897L184.717 47.7981V62.444H189.898V39.9108H184.975L174.155 54.5868Z" fill="white"/>
<path d="M210.432 48.7932H200.133V39.9108H194.888V62.444H200.133V53.2043H210.432V62.444H215.681V39.9108H210.432V48.7932Z" fill="white"/>
<path d="M225.917 53.044H236.444V48.9869H225.917V44.0949H237.839V39.9108H220.705V62.444H238.259V58.26H225.917V53.044Z" fill="white"/>
<path d="M257.402 48.7932H247.1V39.9108H241.854V62.444H247.1V53.2043H257.402V62.444H262.648V39.9108H257.402V48.7932Z" fill="white"/>
<path d="M284.997 39.9108H265.336V44.1616H272.56V62.444H277.742V44.1616H284.997V39.9108Z" fill="white"/>
</g>
<defs>
<clipPath id="clip0_2422_618">
<rect width="285" height="69.4231" fill="white"/>
</clipPath>
</defs>
</svg>
