<svg width="285" height="69" viewBox="0 0 285 69" fill="none" xmlns="http://www.w3.org/2000/svg">
<g clip-path="url(#clip0_2422_645)">
<path d="M0 0V68.6912H58.6096V0H0ZM51.8319 62.0286H6.76083V6.64616H51.8319V62.0286Z" fill="#003595"/>
<path d="M45.0712 13.2924H13.5217V55.3825H45.0712V13.2924Z" fill="#76BC21"/>
<path d="M76.083 25.7092C77.2244 26.7644 78.5676 27.5863 80.0346 28.1272C81.6244 28.7122 83.3104 29.0034 85.0078 28.986C86.6834 29.0041 88.3475 28.7128 89.9138 28.1272C91.3673 27.5834 92.6992 26.7666 93.8352 25.7224C94.9481 24.6898 95.8344 23.4443 96.4394 22.0624C97.0757 20.6086 97.3961 19.0402 97.3802 17.4577C97.4002 15.8769 97.0796 14.3098 96.4394 12.8595C95.8242 11.491 94.939 10.256 93.8352 9.22596C92.7033 8.17331 91.3705 7.3515 89.9138 6.80797C86.7303 5.65841 83.2349 5.65841 80.0514 6.80797C78.5855 7.35114 77.2427 8.17277 76.0997 9.22596C74.9897 10.2519 74.1057 11.4908 73.5023 12.8661C72.2701 15.8027 72.2701 19.0994 73.5023 22.036C74.0992 23.4203 74.9774 24.6702 76.083 25.7092ZM78.4351 14.5607C78.7768 13.7155 79.2888 12.9469 79.9405 12.3013C80.5831 11.6694 81.3488 11.1717 82.1919 10.8379C83.0834 10.4902 84.0352 10.3163 84.9943 10.3259C85.9588 10.3171 86.916 10.491 87.8136 10.8379C88.6596 11.1661 89.4265 11.6645 90.065 12.3013C90.7082 12.9503 91.2142 13.7182 91.5536 14.5607C92.2662 16.4296 92.2662 18.489 91.5536 20.3579C91.2177 21.2005 90.7104 21.9667 90.0627 22.6097C89.4149 23.2527 88.6405 23.7589 87.7867 24.0972C86.895 24.4439 85.9431 24.6166 84.9843 24.6059C84.0211 24.6158 83.065 24.443 82.1684 24.0972C81.3213 23.7695 80.5541 23.2697 79.917 22.6306C79.2677 21.9793 78.7601 21.2049 78.425 20.3546C77.7126 18.4914 77.7126 16.4372 78.425 14.5739L78.4351 14.5607Z" fill="#003595"/>
<path d="M121.198 6.31592H115.66L109.712 15.3272H105.942V6.31592H100.727V28.6063H105.942V19.6247H109.558L115.465 28.6063H121.423L113.788 17.0812L121.198 6.31592Z" fill="#003595"/>
<path d="M142.821 9.21277C141.689 8.16013 140.356 7.33831 138.899 6.79479C135.716 5.64523 132.221 5.64523 129.037 6.79479C127.571 7.33796 126.228 8.15958 125.085 9.21277C123.97 10.2416 123.083 11.4853 122.478 12.8662C121.246 15.8028 121.246 19.0994 122.478 22.036C123.079 23.4176 123.961 24.6642 125.069 25.6993C126.21 26.7545 127.553 27.5764 129.02 28.1173C130.61 28.7023 132.296 28.9935 133.993 28.9762C135.669 28.9942 137.333 28.7029 138.899 28.1173C140.353 27.5735 141.685 26.7567 142.821 25.7125C143.934 24.68 144.82 23.4344 145.425 22.0525C146.061 20.5987 146.382 19.0304 146.366 17.4478C146.386 15.867 146.065 14.2999 145.425 12.8497C144.81 11.48 143.925 10.2438 142.821 9.21277ZM140.519 20.358C140.184 21.1996 139.679 21.9652 139.033 22.6081C138.387 23.2511 137.614 23.7578 136.762 24.0972C135.871 24.4439 134.919 24.6167 133.96 24.6059C132.997 24.6158 132.041 24.4431 131.144 24.0972C130.297 23.7695 129.53 23.2698 128.893 22.6306C128.243 21.9793 127.736 21.205 127.401 20.3547C126.688 18.4914 126.688 16.4372 127.401 14.574C127.742 13.7287 128.254 12.9601 128.906 12.3145C129.549 11.6827 130.314 11.1849 131.157 10.8512C132.049 10.5034 133.001 10.3295 133.96 10.3392C134.924 10.3304 135.881 10.5042 136.779 10.8512C137.625 11.1793 138.392 11.6778 139.03 12.3145C139.674 12.9635 140.18 13.7315 140.519 14.574C141.232 16.4429 141.232 18.5023 140.519 20.3712V20.358Z" fill="#003595"/>
<path d="M155.012 19.4662H165.314V28.6063H170.56V6.31592H165.314V15.1026H155.012V6.31592H149.766V28.6063H155.012V19.4662Z" fill="#003595"/>
<path d="M196.377 28.6063V6.31592H191.128V15.1026H180.829V6.31592H175.583V28.6063H180.829V19.4662H191.128V28.6063H196.377Z" fill="#003595"/>
<path d="M229.058 6.31592H223.843V28.6063H229.058V6.31592Z" fill="#003595"/>
<path d="M218.729 15.4395C217.237 14.2415 215.12 13.6414 212.378 13.6392H206.612V6.31592H201.4V28.6063H211.635C214.548 28.6063 216.83 27.9456 218.484 26.6243C220.137 25.303 220.964 23.3706 220.964 20.8271C220.964 18.4334 220.219 16.6375 218.729 15.4395ZM214.525 23.7967C213.746 24.4574 212.687 24.7877 211.35 24.7877H206.612V17.4578H211.343C212.704 17.4578 213.766 17.7287 214.535 18.2737C215.305 18.8187 215.681 19.7007 215.681 20.9163C215.681 22.1319 215.295 23.1394 214.525 23.7967Z" fill="#003595"/>
<path d="M249.825 28.6063H255.003V6.31592H250.08L239.264 20.8337V6.31592H234.049V28.6063H239.005L249.825 14.1182V28.6063Z" fill="#003595"/>
<path d="M239.768 3.61715C240.769 4.46719 242.35 4.89111 244.512 4.88891C246.674 4.8867 248.25 4.46278 249.24 3.61715C250.255 2.76711 250.773 1.56693 250.796 0.0166016H247.2C247.214 0.339325 247.157 0.661165 247.034 0.960743C246.912 1.26032 246.725 1.53077 246.488 1.75411C245.925 2.18172 245.222 2.39099 244.512 2.3421C243.616 2.3421 242.952 2.14609 242.52 1.75411C242.287 1.52823 242.104 1.25703 241.984 0.95784C241.863 0.658655 241.808 0.33808 241.821 0.0166016H238.229C238.249 1.56473 238.762 2.76491 239.768 3.61715Z" fill="#003595"/>
<path d="M94.571 39.4805H89.0333L83.0857 48.4918H79.3155V39.4805H74.1003V61.7708H79.3155V52.7893H82.9311L88.8384 61.7708H94.7961L87.1617 50.2458L94.571 39.4805Z" fill="#003595"/>
<path d="M116.194 42.3775C115.063 41.3225 113.73 40.4984 112.273 39.9529C109.089 38.8033 105.594 38.8033 102.411 39.9529C100.945 40.496 99.6018 41.3177 98.4588 42.3709C97.3415 43.4017 96.4536 44.6491 95.8513 46.0342C94.6191 48.9708 94.6191 52.2674 95.8513 55.204C96.4516 56.5851 97.3333 57.8307 98.442 58.864C99.5824 59.9213 100.926 60.7445 102.394 61.2853C103.983 61.8703 105.669 62.1615 107.367 62.1441C109.042 62.1622 110.707 61.8709 112.273 61.2853C113.726 60.7415 115.058 59.9247 116.194 58.8805C117.308 57.8475 118.195 56.6021 118.802 55.2205C119.437 53.7662 119.757 52.1982 119.743 50.6158C119.766 49.0726 119.463 47.5414 118.852 46.1197C118.241 44.698 117.336 43.4168 116.194 42.3576V42.3775ZM113.892 53.5227C113.553 54.369 113.041 55.1379 112.387 55.7821C111.746 56.4163 110.98 56.9154 110.136 57.2487C109.244 57.5954 108.292 57.7681 107.333 57.7574C106.37 57.7673 105.414 57.5945 104.517 57.2487C103.67 56.921 102.903 56.4212 102.266 55.7821C101.618 55.1301 101.112 54.3559 100.777 53.5061C100.061 51.6436 100.061 49.5879 100.777 47.7254C101.112 46.886 101.618 46.1226 102.263 45.4819C102.909 44.8412 103.68 44.3367 104.531 43.9994C105.423 43.6545 106.375 43.4818 107.333 43.4907C108.297 43.4824 109.254 43.6551 110.153 43.9994C110.998 44.3298 111.765 44.8293 112.404 45.466C113.047 46.115 113.553 46.883 113.892 47.7254C114.605 49.5944 114.605 51.6537 113.892 53.5227Z" fill="#003595"/>
<path d="M138.688 48.2671H128.385V39.4805H123.14V61.7708H128.385V52.6307H138.688V61.7708H143.937V39.4805H138.688V48.2671Z" fill="#003595"/>
<path d="M146.625 43.6855H153.849V61.7708H159.031V43.6855H166.286V39.4805H146.625V43.6855Z" fill="#003595"/>
<path d="M174.155 53.9983V39.4805H168.94V61.7708H173.897L184.717 47.2828V61.7708H189.898V39.4805H184.975L174.155 53.9983Z" fill="#003595"/>
<path d="M210.433 48.2671H200.133V39.4805H194.888V61.7708H200.133V52.6307H210.433V61.7708H215.681V39.4805H210.433V48.2671Z" fill="#003595"/>
<path d="M225.917 52.4722H236.444V48.4587H225.917V43.6195H237.839V39.4805H220.705V61.7708H238.259V57.6319H225.917V52.4722Z" fill="#003595"/>
<path d="M257.402 48.2671H247.1V39.4805H241.854V61.7708H247.1V52.6307H257.402V61.7708H262.648V39.4805H257.402V48.2671Z" fill="#003595"/>
<path d="M284.997 39.4805H265.336V43.6855H272.56V61.7708H277.742V43.6855H284.997V39.4805Z" fill="#003595"/>
</g>
<defs>
<clipPath id="clip0_2422_645">
<rect width="285" height="68.6747" fill="white"/>
</clipPath>
</defs>
</svg>
